<svg width="20" height="21" viewBox="0 0 20 21" fill="none" xmlns="http://www.w3.org/2000/svg">
<g clip-path="url(#clip0_2654_858)">
<path d="M10.0004 0.500732C7.8041 0.520732 6.03098 2.30573 6.03098 4.50511C6.03098 4.50761 6.03098 4.51011 6.03098 4.51261V6.16573H2.94348C2.93973 6.16573 2.93598 6.16573 2.9316 6.16573C2.57285 6.16573 2.28223 6.45636 2.28223 6.81511C2.28223 6.82011 2.28223 6.82511 2.28223 6.82948V17.1926C2.28223 17.1939 2.28223 17.1951 2.28223 17.197C2.28223 19.0214 3.76098 20.5001 5.58535 20.5001C5.5866 20.5001 5.58848 20.5001 5.58973 20.5001H14.4097C14.411 20.5001 14.4122 20.5001 14.4141 20.5001C16.2385 20.5001 17.7172 19.0214 17.7172 17.197C17.7172 17.1957 17.7172 17.1939 17.7172 17.1926V6.82886C17.7172 6.82511 17.7172 6.82136 17.7172 6.81698C17.7172 6.45823 17.4266 6.16761 17.0679 6.16761C17.0635 6.16761 17.0597 6.16761 17.0554 6.16761H13.9704V4.51198C13.9704 4.51011 13.9704 4.50761 13.9704 4.50511C13.9704 2.30511 12.1966 0.520107 10.0016 0.500732H10.0004ZM7.3541 4.51198C7.3541 3.05073 8.5391 1.86573 10.0004 1.86573C11.4616 1.86573 12.6466 3.05073 12.6466 4.51198V6.16573H7.3541V4.51198ZM16.3916 7.51198V17.2145C16.3916 17.217 16.3916 17.2201 16.3916 17.2226C16.3916 18.3139 15.5066 19.1989 14.4154 19.1989C14.4122 19.1989 14.4097 19.1989 14.4066 19.1989H5.5891C5.5866 19.1989 5.58348 19.1989 5.58098 19.1989C4.48973 19.1989 3.60473 18.3139 3.60473 17.2226C3.60473 17.2195 3.60473 17.217 3.60473 17.2139V7.51198H6.03035V8.66136C6.03035 9.02698 6.3266 9.32261 6.6916 9.32261C7.0566 9.32261 7.35285 9.02636 7.35285 8.66136V7.51198H12.6454V8.66136C12.6454 9.02698 12.9416 9.32261 13.3066 9.32261C13.6716 9.32261 13.9679 9.02636 13.9679 8.66136V7.51198H16.3916Z" fill="black"/>
</g>
<defs>
<clipPath id="clip0_2654_858">
<rect width="20" height="20" fill="white" transform="translate(0 0.5)"/>
</clipPath>
</defs>
</svg>
