<svg width="30" height="30" viewBox="0 0 30 30" fill="none" xmlns="http://www.w3.org/2000/svg">
<path fill-rule="evenodd" clip-rule="evenodd" d="M14.111 6.87748C14.2836 6.87721 14.4694 6.87729 14.6698 6.87738L15.0001 6.87748C17.6464 6.87748 17.96 6.88698 19.005 6.93447C19.9714 6.97865 20.4959 7.14012 20.8452 7.27578C21.3077 7.45542 21.6375 7.67017 21.9842 8.01706C22.3311 8.36395 22.5458 8.69432 22.7259 9.15684C22.8615 9.5058 23.0232 10.0303 23.0672 10.9966C23.1147 12.0414 23.125 12.3553 23.125 15.0003C23.125 17.6454 23.1147 17.9592 23.0672 19.004C23.023 19.9704 22.8615 20.4948 22.7259 20.8438C22.5462 21.3063 22.3311 21.6356 21.9842 21.9823C21.6373 22.3292 21.308 22.544 20.8452 22.7236C20.4963 22.8599 19.9714 23.0209 19.005 23.0651C17.9602 23.1126 17.6464 23.1229 15.0001 23.1229C12.3536 23.1229 12.04 23.1126 10.9952 23.0651C10.0288 23.0205 9.50435 22.8591 9.15478 22.7234C8.69226 22.5438 8.36188 22.329 8.01499 21.9821C7.6681 21.6352 7.45336 21.3057 7.27331 20.843C7.13765 20.494 6.97597 19.9695 6.93199 19.0032C6.8845 17.9584 6.875 17.6445 6.875 14.9978C6.875 12.3511 6.8845 12.0389 6.93199 10.9941C6.97618 10.0278 7.13765 9.50332 7.27331 9.15395C7.45295 8.69143 7.6681 8.36106 8.01499 8.01417C8.36188 7.66728 8.69226 7.45253 9.15478 7.27248C9.50415 7.1362 10.0288 6.97514 10.9952 6.93075C11.9095 6.88945 12.2638 6.87706 14.111 6.875V6.87748ZM20.2906 8.52316C19.634 8.52316 19.1013 9.05527 19.1013 9.71209C19.1013 10.3687 19.634 10.9014 20.2906 10.9014C20.9472 10.9014 21.48 10.3687 21.48 9.71209C21.48 9.05547 20.9472 8.52275 20.2906 8.52275V8.52316ZM9.91019 15.0026C9.91019 12.1918 12.189 9.91289 14.9998 9.91278C17.8106 9.91278 20.089 12.1917 20.089 15.0026C20.089 17.8134 17.8109 20.0914 15 20.0914C12.1891 20.0914 9.91019 17.8134 9.91019 15.0026Z" fill="black"/>
<path d="M15 11.6987C16.8245 11.6987 18.3037 13.1778 18.3037 15.0025C18.3037 16.8269 16.8245 18.3062 15 18.3062C13.1753 18.3062 11.6963 16.8269 11.6963 15.0025C11.6963 13.1778 13.1753 11.6987 15 11.6987Z" fill="black"/>
</svg>
