<svg width="30" height="30" viewBox="0 0 30 30" fill="none" xmlns="http://www.w3.org/2000/svg">
<path d="M15 6.875C9.47712 6.875 5 10.4051 5 14.7596C5 17.5749 6.87173 20.0452 9.68731 21.4401C9.53413 21.9684 8.70298 24.8386 8.6699 25.064C8.6699 25.064 8.65 25.2335 8.75971 25.2981C8.86942 25.3627 8.99846 25.3125 8.99846 25.3125C9.31308 25.2686 12.6468 22.9268 13.2238 22.5202C13.8003 22.6018 14.3938 22.6442 15 22.6442C20.5229 22.6442 25 19.1142 25 14.7596C25 10.4051 20.5229 6.875 15 6.875Z" fill="black"/>
<path d="M9.471 17.512C9.15283 17.512 8.89408 17.2649 8.89408 16.961V13.5336H7.99389C7.68168 13.5336 7.42773 13.2802 7.42773 12.9687C7.42773 12.6573 7.68177 12.4038 7.99389 12.4038H10.9481C11.2603 12.4038 11.5143 12.6573 11.5143 12.9687C11.5143 13.2802 11.2602 13.5336 10.9481 13.5336H10.0479V16.961C10.0479 17.2649 9.78918 17.512 9.471 17.512ZM14.5298 17.5045C14.2893 17.5045 14.1052 17.4068 14.0498 17.2497L13.7641 16.5018L12.0048 16.5017L11.719 17.2501C11.6637 17.4069 11.4798 17.5045 11.2392 17.5045C11.1126 17.5046 10.9875 17.4775 10.8724 17.4249C10.7134 17.3515 10.5605 17.1498 10.7357 16.6056L12.1157 12.9733C12.2129 12.6971 12.5082 12.4125 12.884 12.4039C13.2608 12.4124 13.5561 12.6971 13.6535 12.9739L15.0329 16.6046C15.2085 17.15 15.0556 17.3518 14.8966 17.425C14.7815 17.4775 14.6564 17.5046 14.5298 17.5045C14.5298 17.5045 14.5298 17.5045 14.5298 17.5045ZM13.4607 15.4799L12.8845 13.8428L12.3082 15.4799H13.4607ZM15.9614 17.4278C15.6565 17.4278 15.4085 17.1905 15.4085 16.899V12.9807C15.4085 12.6626 15.6727 12.4038 15.9974 12.4038C16.3222 12.4038 16.5864 12.6626 16.5864 12.9807V16.3702H17.8123C18.1173 16.3702 18.3652 16.6075 18.3652 16.899C18.3652 17.1905 18.1173 17.4278 17.8123 17.4278H15.9614ZM19.1666 17.5045C18.8484 17.5045 18.5897 17.2457 18.5897 16.9276V12.9807C18.5897 12.6626 18.8484 12.4038 19.1666 12.4038C19.4848 12.4038 19.7435 12.6626 19.7435 12.9807V14.2207L21.3531 12.6111C21.4359 12.5283 21.5497 12.4828 21.6731 12.4828C21.8172 12.4828 21.9618 12.5449 22.0701 12.6531C22.1712 12.7541 22.2315 12.884 22.2398 13.0189C22.2481 13.155 22.2028 13.2797 22.1124 13.3702L20.7977 14.6847L22.2178 16.566C22.2637 16.6264 22.2971 16.6952 22.3161 16.7686C22.3351 16.842 22.3394 16.9184 22.3286 16.9934C22.3183 17.0685 22.2932 17.1408 22.2548 17.2061C22.2164 17.2714 22.1654 17.3284 22.1048 17.3739C22.005 17.4497 21.883 17.4907 21.7577 17.4903C21.6683 17.4908 21.5801 17.4702 21.5001 17.4304C21.42 17.3906 21.3504 17.3326 21.2969 17.261L19.9439 15.4683L19.7437 15.6685V16.9273C19.7435 17.0803 19.6827 17.227 19.5745 17.3352C19.4663 17.4434 19.3196 17.5043 19.1666 17.5045Z" fill="white"/>
</svg>
