<svg width="20" height="21" viewBox="0 0 20 21" fill="none" xmlns="http://www.w3.org/2000/svg">
<g clip-path="url(#clip0_2654_852)">
<path d="M11.1527 15.5132C13.7945 14.3632 15.6089 11.7751 15.6089 8.76323C15.6089 4.70886 12.3227 1.42261 8.26828 1.42261C7.24578 1.42261 6.27203 1.63198 5.38766 2.00948L5.43578 1.99136C2.78453 3.18948 0.972656 5.81073 0.972656 8.85511C0.972656 9.88198 1.17891 10.8607 1.55203 11.752L1.53391 11.7026C2.66516 14.3289 5.23141 16.1339 8.21891 16.1339C9.28141 16.1339 10.2902 15.9057 11.1995 15.4957L11.1539 15.5145L11.1527 15.5132Z" stroke="black" stroke-width="1.51213" stroke-linecap="round" stroke-linejoin="round"/>
<path d="M13.4629 14.0593L19.0285 19.5775" stroke="black" stroke-width="1.51213" stroke-linecap="round" stroke-linejoin="round"/>
</g>
<defs>
<clipPath id="clip0_2654_852">
<rect width="20" height="20" fill="white" transform="translate(0 0.5)"/>
</clipPath>
</defs>
</svg>
