<svg width="20" height="20" viewBox="0 0 20 20" fill="none" xmlns="http://www.w3.org/2000/svg">
<path d="M13.3336 7.5L8.88916 12.5L6.66667 10M2.5 14.8335V5.16683C2.5 4.23341 2.5 3.76635 2.68166 3.40983C2.84144 3.09623 3.09623 2.84144 3.40983 2.68166C3.76635 2.5 4.23341 2.5 5.16683 2.5H14.8335C15.7669 2.5 16.233 2.5 16.5895 2.68166C16.9031 2.84144 17.1587 3.09623 17.3185 3.40983C17.5 3.766 17.5 4.23249 17.5 5.16409V14.8363C17.5 15.7679 17.5 16.2337 17.3185 16.5899C17.1587 16.9035 16.9031 17.1587 16.5895 17.3185C16.2333 17.5 15.7675 17.5 14.8359 17.5H5.16409C4.23249 17.5 3.766 17.5 3.40983 17.3185C3.09623 17.1587 2.84144 16.9035 2.68166 16.5899C2.5 16.2334 2.5 15.7669 2.5 14.8335Z" stroke="#CCCCCC" stroke-linecap="round" stroke-linejoin="round"/>
</svg>
