<svg width="20" height="21" viewBox="0 0 20 21" fill="none" xmlns="http://www.w3.org/2000/svg">
<g clip-path="url(#clip0_2654_855)">
<path d="M9.92156 9.39302C12.1903 9.38052 14.0259 7.54489 14.0378 5.27802V5.27677C14.0009 3.00989 12.1547 1.18677 9.88219 1.18677C7.60969 1.18677 5.76344 3.00989 5.72656 5.27364V5.27739C5.74906 7.55552 7.60094 9.39427 9.88219 9.39427C9.89594 9.39427 9.90969 9.39427 9.92281 9.39427H9.92094L9.92156 9.39302Z" stroke="black" stroke-width="1.35444" stroke-linecap="round" stroke-linejoin="round"/>
<path d="M2.24281 19.8088C2.24219 19.7819 2.24219 19.7507 2.24219 19.7188C2.24219 15.4344 5.71531 11.9607 10.0003 11.9607C14.2853 11.9607 17.7584 15.4338 17.7584 19.7188C17.7584 19.7507 17.7584 19.7819 17.7578 19.8138V19.8088" stroke="black" stroke-width="1.35444" stroke-linecap="round" stroke-linejoin="round"/>
</g>
<defs>
<clipPath id="clip0_2654_855">
<rect width="20" height="20" fill="white" transform="translate(0 0.5)"/>
</clipPath>
</defs>
</svg>
