<svg xmlns:xlink="http://www.w3.org/1999/xlink" version="1.1" xmlns="http://www.w3.org/2000/svg" width="215" height="45" viewBox="0 0 256 32" style="user-select: auto !important;">
                                <path d="M252.466 10.801c0.65 0 0.959 0.16 0.959 0.65s-0.32 0.65-0.959 0.65h-0.65v-1.28zM252.546 10.4h-1.28v3.599h0.561v-1.516h0.721l0.721 1.516h0.65l-0.799-1.6c0.452-0.044 0.802-0.422 0.802-0.882 0-0.027-0.001-0.054-0.004-0.081l0 0.003c0.080-0.721-0.401-1.039-1.36-1.039zM255.186 12.241c-0.010 0.749-0.313 1.425-0.799 1.921l0-0c-0.474 0.493-1.139 0.799-1.875 0.799-0.016 0-0.032-0-0.048-0l0.002 0c-0.746-0.026-1.418-0.326-1.922-0.8l0.002 0.001c-0.493-0.474-0.799-1.139-0.799-1.875 0-0.016 0-0.032 0-0.048l-0 0.002c0.025-0.772 0.324-1.47 0.802-2.004l-0.003 0.003c0.466-0.485 1.117-0.789 1.839-0.799l0.002-0c0.749 0.010 1.425 0.313 1.921 0.799l-0-0c0.531 0.506 0.867 1.212 0.888 1.997l0 0.004zM252.466 9.121c-0.002 0-0.004 0-0.007 0-0.84 0-1.602 0.335-2.159 0.88l0.001-0.001c-0.545 0.585-0.879 1.372-0.879 2.237 0 0.001 0 0.002 0 0.002v-0c0 0.002 0 0.004 0 0.007 0 0.84 0.335 1.602 0.88 2.159l-0.001-0.001c0.552 0.568 1.314 0.929 2.16 0.959l0.005 0c0.009 0 0.019 0 0.029 0 0.848 0 1.61-0.37 2.134-0.957l0.002-0.003c0.544-0.557 0.88-1.319 0.88-2.16s-0.336-1.603-0.881-2.161l0.001 0.001c-0.526-0.59-1.288-0.959-2.136-0.959-0.010 0-0.020 0-0.031 0h0.002z" style="user-select: auto !important;"></path>
                                <path d="M9.281 19.999c0 8.159 0.080 10.879 4.721 10.879h0.398v0.65h-14.4v-0.65h0.401c3.999 0 4.080-2.8 4.080-10.561v-9.038c0-7.759-0.080-10.561-4.080-10.561h-0.401v-0.719h14.075c6.879 0 10.48 3.12 10.48 7.919 0 5.279-3.839 8.239-11.279 8.239h-3.995v3.841zM11.6 15.041c5.039 0 7.601-2.319 7.601-6.639 0-4.881-2.88-7.44-8.399-7.44h-1.442v14.157h2.241z" style="user-select: auto !important;"></path>
                                <path d="M27.119 13.36c2.156-2.738 5.471-4.48 9.193-4.48 0.002 0 0.004 0 0.006 0h-0c3.007 0.034 5.747 1.149 7.856 2.973l-0.015-0.013c2.221 2.029 3.609 4.938 3.609 8.171 0 0.165-0.004 0.329-0.011 0.492l0.001-0.023c0 0.003 0 0.007 0 0.011 0 3.165-1.25 6.038-3.284 8.152l0.004-0.004c-2.137 2.005-4.992 3.267-8.141 3.36l-0.018 0c-0.061 0.001-0.132 0.002-0.204 0.002-3.090 0-5.894-1.22-7.959-3.204l0.004 0.004c-2.125-1.944-3.452-4.73-3.452-7.825 0-0.174 0.004-0.346 0.012-0.518l-0.001 0.024c-0.009-0.164-0.015-0.356-0.015-0.549 0-2.513 0.913-4.812 2.426-6.585l-0.012 0.014zM43.678 20.48c0-6.96-3.12-10.879-7.52-10.879-4.32 0-7.601 4.080-7.601 10.799 0 6.639 3.2 10.959 7.601 10.959 4.24 0 7.52-3.919 7.52-10.879z" style="user-select: auto !important;"></path>
                                <path d="M56.317 23.28c0 5.68 0 7.761 2.88 7.761h0.24v0.481h-9.679v-0.481h0.24c2.8 0 2.88-2.001 2.88-7.44v-6.401c0-5.439-0.080-7.44-2.88-7.44h-0.24v-0.479h9.281c5.119 0 7.6 1.68 7.6 5.6 0.003 0.065 0.005 0.142 0.005 0.219 0 2.789-2.256 5.051-5.043 5.060h-0.001c3.361 0.16 3.599 3.032 5.439 6.479 1.516 2.8 3.2 4.16 4.961 4.16h0.16v0.481h-6.163c-1.236-2.031-2.493-4.448-3.596-6.949l-0.163-0.414c-1.44-2.72-2.165-3.361-4.801-3.361h-1.12v2.72zM57.677 20.080c3.599 0 5.359-1.516 5.359-4.721 0-3.599-1.68-5.279-5.119-5.279h-1.6v10z" style="user-select: auto !important;"></path>
                                <path d="M83.040 23.598c0 5.439 0.080 7.44 2.88 7.44h0.24v0.481h-9.601v-0.481h0.24c2.8 0 2.88-2.001 2.88-7.44v-13.28h-1.516c-4.16 0-5.92 0.879-6.713 5.197h-0.411l0.32-6.16h20.080l0.32 6.16h-0.401c-0.799-4.32-2.64-5.197-6.713-5.197h-1.516v12.639c-0.052 0.169-0.082 0.363-0.082 0.565 0 0.030 0.001 0.059 0.002 0.089l-0-0.004z" style="user-select: auto !important;"></path>
                                <path d="M114.239 12.321c1.569-1.914 3.933-3.126 6.581-3.126 0.105 0 0.21 0.002 0.314 0.006l-0.015-0c4.721 0.080 6.559 2.8 6.559 7.28v7.52c0 5.847 0.401 7.040 2.88 6.96h0.16v0.481h-9.599v-0.481h0.16c2.559 0.080 2.96-1.2 2.96-6.96v-7.52c0-3.919-1.841-6.401-4.48-6.401-1.53 0.062-2.902 0.691-3.921 1.682l0.001-0.001c-0.857 1.12-1.373 2.54-1.373 4.081 0 0.394 0.034 0.78 0.099 1.156l-0.006-0.040v7.040c-0.080 5.847 0.401 7.040 2.88 6.96h0.16v0.481h-9.599v-0.481h0.16c2.64 0.080 2.96-1.2 2.88-6.96v-7.516c0-3.919-1.841-6.241-4.48-6.241-1.527 0.078-2.894 0.704-3.922 1.683l0.002-0.002c-0.859 1.089-1.378 2.481-1.378 3.995 0 0.397 0.036 0.786 0.104 1.164l-0.006-0.040v6.96c0 5.847 0.401 6.96 2.88 6.96h0.16v0.481h-9.599v-0.481h0.16c2.559 0 2.88-1.2 2.88-6.96v-8.246c0-3.281-0.799-4.4-3.521-4.64v-0.481c2.387-0.366 4.516-0.924 6.551-1.675l-0.23 0.074 0.32 0.080 0.32 2.96c1.606-1.772 3.916-2.88 6.484-2.88 0.026 0 0.052 0 0.078 0l-0.004-0c0.19-0.019 0.411-0.029 0.634-0.029 2.409 0 4.528 1.243 5.75 3.123l0.016 0.027z" style="user-select: auto !important;"></path>
                                <path d="M163.196 9.842h-0.232c-2.88 0-2.88 2.081-2.88 7.761v5.6c0 5.68 0 7.761 2.88 7.761h0.24v0.481h-9.768v-0.401h0.24c2.8 0 2.88-2.001 2.88-7.44v-6.403c0-5.439-0.080-7.44-2.88-7.44h-0.24v-0.479h9.759v0.561z" style="user-select: auto !important;"></path>
                                <path d="M173.036 23.28c0 5.68 0 7.761 2.88 7.761h0.24v0.481h-9.679v-0.481h0.24c2.8 0 2.88-2.001 2.88-7.44v-6.401c0-5.439-0.080-7.44-2.88-7.44h-0.24v-0.479h9.281c5.119 0 7.601 1.68 7.601 5.6 0.003 0.065 0.005 0.142 0.005 0.219 0 2.789-2.256 5.051-5.043 5.060h-0.001c3.361 0.16 3.599 3.032 5.439 6.479 1.516 2.8 3.361 4.16 5.119 4.16h0.16v0.481h-6.401c-1.236-2.031-2.493-4.448-3.596-6.949l-0.163-0.414c-1.44-2.72-2.165-3.361-4.801-3.361h-1.119v2.165c0.049 0.167 0.077 0.359 0.078 0.558v0.001zM174.395 20.080c3.599 0 5.359-1.516 5.359-4.721 0-3.599-1.68-5.279-5.119-5.279h-1.6v10z" style="user-select: auto !important;"></path>
                                <path d="M198.955 9.842h-0.24c-2.88 0-2.88 2.081-2.88 7.761v5.6c0 5.68 0.080 7.761 2.88 7.761h0.24v0.481h-9.839v-0.401h0.32c2.8 0 2.88-2.001 2.88-7.44v-6.403c0-5.439-0.080-7.44-2.88-7.44h-0.24v-0.479h9.759v0.561z" style="user-select: auto !important;"></path>
                                <path d="M203.676 13.36c2.156-2.738 5.471-4.48 9.193-4.48 0.003 0 0.006 0 0.008 0h-0c3.007 0.034 5.747 1.149 7.856 2.973l-0.015-0.013c2.222 2.029 3.611 4.939 3.611 8.173 0 0.164-0.004 0.328-0.011 0.49l0.001-0.023c0 0.003 0 0.007 0 0.011 0 3.165-1.25 6.038-3.284 8.152l0.004-0.004c-2.137 2.005-4.992 3.267-8.141 3.36l-0.018 0c-0.060 0.001-0.13 0.002-0.201 0.002-3.091 0-5.897-1.22-7.962-3.206l0.004 0.004c-2.124-1.944-3.45-4.729-3.45-7.824 0-0.174 0.004-0.348 0.013-0.52l-0.001 0.024c-0.009-0.164-0.015-0.356-0.015-0.549 0-2.513 0.913-4.812 2.426-6.585l-0.012 0.014zM220.237 20.48c0-6.96-3.12-10.879-7.52-10.879-4.331 0-7.601 4.080-7.601 10.799 0 6.639 3.2 10.959 7.601 10.959 4.24 0 7.52-3.919 7.52-10.879z" style="user-select: auto !important;"></path>
                                <path d="M244.796 15.76c0-4.080-0.561-5.847-3.2-5.847v-0.474h7.12v0.481c-2.64 0.080-3.2 1.76-3.2 5.847v15.92h-0.481l-15.279-19.519v12.96c0 4.080 0.561 5.847 3.2 5.847v0.481h-7.12v-0.401c2.64-0.080 3.2-1.76 3.2-5.847v-9.608c0-3.839-0.401-5.68-3.12-5.68v-0.481h5.92l12.96 16.401v-10.080z" style="user-select: auto !important;"></path>
                                <path d="M135.917 19.441c0 7.28 3.2 11.279 7.681 11.279 0.054 0.002 0.118 0.002 0.182 0.002 3.093 0 5.712-2.026 6.603-4.823l0.013-0.049h0.799c-1.017 3.604-4.276 6.2-8.141 6.2-0.288 0-0.574-0.014-0.855-0.043l0.035 0.003c-6.321 0-10.48-4.24-10.48-11.043 0-7.28 4.721-12.001 10.799-12.001 0.189-0.017 0.408-0.026 0.63-0.026 4.204 0 7.611 3.408 7.611 7.611 0 0.062-0.001 0.123-0.002 0.185l0-0.009v0.16h-14.64c-0.126 0.748-0.212 1.631-0.24 2.529l-0.001 0.030zM147.196 16.16c-0.16-3.999-2.319-6.241-5.359-6.241-3.361 0-5.041 2.64-5.6 6.241z" style="user-select: auto !important;"></path>
                            </svg>